<svg data-v-423bf9ae="" xmlns="http://www.w3.org/2000/svg" viewBox="0 0 215.0624905005101 60" class="font"><!----><!----><!----><g data-v-423bf9ae="" id="0c0253cf-19bf-4785-97f4-ffda1fe17a58" fill="black" transform="matrix(6.249999751647323,0,0,6.249999751647323,-6.125000371287456,-16.812499212721995)"><path d="M0.98 12.29L0.98 2.69L2.21 2.69L2.21 11.17L6.13 11.17L6.13 12.29L0.98 12.29ZM6.37 12.29L9.42 2.69L11.00 2.69L14.06 12.29L12.73 12.29L12.07 10.15L8.26 10.15L7.60 12.29L6.37 12.29ZM8.60 9.03L11.72 9.03L10.42 4.76Q10.36 4.56 10.28 4.19Q10.21 3.82 10.19 3.70L10.19 3.70L10.14 3.70Q10.12 3.82 10.04 4.19Q9.97 4.56 9.91 4.76L9.91 4.76L8.60 9.03ZM14.03 12.29L17.08 2.69L18.66 2.69L21.71 12.29L20.38 12.29L19.73 10.15L15.92 10.15L15.26 12.29L14.03 12.29ZM16.25 9.03L19.38 9.03L18.07 4.76Q18.02 4.56 17.94 4.19Q17.86 3.82 17.85 3.70L17.85 3.70L17.79 3.70Q17.78 3.82 17.70 4.19Q17.63 4.56 17.57 4.76L17.57 4.76L16.25 9.03ZM22.68 12.29L22.68 2.69L23.91 2.69L23.91 11.17L27.83 11.17L27.83 12.29L22.68 12.29ZM29.06 12.29L29.06 2.69L30.30 2.69L30.30 6.82L34.16 6.82L34.16 2.69L35.39 2.69L35.39 12.29L34.16 12.29L34.16 7.94L30.30 7.94L30.30 12.29L29.06 12.29Z"></path></g><!----><!----></svg>