<svg data-v-423bf9ae="" xmlns="http://www.w3.org/2000/svg" viewBox="0 0 326 90" class="iconLeft"><!----><!----><!----><g data-v-423bf9ae="" id="3e77f221-dfae-42a5-acc7-de1dbae603cd" fill="black" transform="matrix(6.249999751647323,0,0,6.249999751647323,103.87500725810708,-1.8125011200706282)"><path d="M0.98 12.29L0.98 2.69L2.21 2.69L2.21 11.17L6.13 11.17L6.13 12.29L0.98 12.29ZM6.37 12.29L9.42 2.69L11.00 2.69L14.06 12.29L12.73 12.29L12.07 10.15L8.26 10.15L7.60 12.29L6.37 12.29ZM8.60 9.03L11.72 9.03L10.42 4.76Q10.36 4.56 10.28 4.19Q10.21 3.82 10.19 3.70L10.19 3.70L10.14 3.70Q10.12 3.82 10.04 4.19Q9.97 4.56 9.91 4.76L9.91 4.76L8.60 9.03ZM14.03 12.29L17.08 2.69L18.66 2.69L21.71 12.29L20.38 12.29L19.73 10.15L15.92 10.15L15.26 12.29L14.03 12.29ZM16.25 9.03L19.38 9.03L18.07 4.76Q18.02 4.56 17.94 4.19Q17.86 3.82 17.85 3.70L17.85 3.70L17.79 3.70Q17.78 3.82 17.70 4.19Q17.63 4.56 17.57 4.76L17.57 4.76L16.25 9.03ZM22.68 12.29L22.68 2.69L23.91 2.69L23.91 11.17L27.83 11.17L27.83 12.29L22.68 12.29ZM29.06 12.29L29.06 2.69L30.30 2.69L30.30 6.82L34.16 6.82L34.16 2.69L35.39 2.69L35.39 12.29L34.16 12.29L34.16 7.94L30.30 7.94L30.30 12.29L29.06 12.29Z"></path></g><!----><g data-v-423bf9ae="" id="159848e2-6579-4d5c-b462-7686ef638546" transform="matrix(2.8125,0,0,2.8125,0,0)" stroke="none" fill="black"><path d="M15.965 16.258l.707-.707 10.39 10.39-.707.707z"></path><path d="M4.935 26.357L26.018 5.274l.707.707L5.642 27.065z"></path><path d="M31 1v4.194h-4.194V1H31m1-1h-6.194v6.194H32V0zM31 26.806V31h-4.194v-4.194H31m1-1h-6.194V32H32v-6.194zM5.194 26.806V31H1v-4.194h4.194m1-1H0V32h6.194v-6.194z"></path></g><!----></svg>