<svg width="80" height="80" viewBox="0 0 80 80" fill="none" xmlns="http://www.w3.org/2000/svg">
<path d="M50.1667 16.6666C53.4225 17.3019 56.4146 18.8942 58.7602 21.2398C61.1058 23.5854 62.6981 26.5775 63.3333 29.8333M50.1667 3.33331C56.9309 4.08477 63.2386 7.1139 68.0541 11.9233C72.8696 16.7328 75.9067 23.0367 76.6667 29.8M73.3333 56.4V66.4C73.3371 67.3283 73.1469 68.2472 72.775 69.0978C72.4031 69.9484 71.8577 70.7119 71.1736 71.3395C70.4895 71.9671 69.6819 72.4449 68.8025 72.7423C67.9231 73.0397 66.9912 73.1502 66.0667 73.0666C55.8094 71.9521 45.9567 68.4471 37.3 62.8333C29.2461 57.7155 22.4178 50.8872 17.3 42.8333C11.6666 34.1373 8.16081 24.2366 7.06667 13.9333C6.98337 13.0115 7.09292 12.0825 7.38834 11.2054C7.68375 10.3283 8.15857 9.52228 8.78255 8.83872C9.40654 8.15516 10.166 7.60901 11.0126 7.23505C11.8593 6.86109 12.7745 6.66752 13.7 6.66665H23.7C25.3177 6.65072 26.886 7.22357 28.1125 8.27842C29.3391 9.33327 30.1403 10.7981 30.3667 12.4C30.7887 15.6002 31.5715 18.7424 32.7 21.7666C33.1485 22.9597 33.2455 24.2564 32.9797 25.5029C32.7138 26.7495 32.0962 27.8937 31.2 28.8L26.9667 33.0333C31.7119 41.3785 38.6215 48.2881 46.9667 53.0333L51.2 48.8C52.1063 47.9038 53.2505 47.2861 54.4971 47.0203C55.7436 46.7544 57.0403 46.8515 58.2333 47.3C61.2576 48.4285 64.3998 49.2112 67.6 49.6333C69.2192 49.8617 70.698 50.6773 71.7551 51.925C72.8122 53.1726 73.3739 54.7652 73.3333 56.4Z" stroke="black" stroke-width="5" stroke-linecap="round" stroke-linejoin="round"/>
</svg>
