<svg width="80" height="80" viewBox="0 0 80 80" fill="none" xmlns="http://www.w3.org/2000/svg">
<g clip-path="url(#clip0_44_111)">
<path d="M50.9035 44.0334C52.7059 44.6005 54.433 45.3839 56.0468 46.3667L55.9435 46.3067C57.7068 47.09 59.2302 48.0067 60.6202 49.0834L60.5702 49.0467C60.6368 49.25 60.6768 49.48 60.6768 49.7234L60.6735 49.83V49.8267C60.6235 51.2567 60.3068 52.6 59.7702 53.8234L59.7968 53.7534C59.0268 55.2967 57.7435 56.4867 56.1735 57.12L56.1268 57.1367C54.5023 57.9861 52.7059 58.4546 50.8735 58.5067H50.8535C47.356 58.057 43.9759 56.9462 40.8935 55.2334L41.0368 55.3067C37.7628 53.8235 34.7855 51.7578 32.2502 49.21L32.2468 49.2067C29.4814 46.3274 26.9741 43.211 24.7535 39.8934L24.5968 39.6467C22.3933 36.7662 21.1148 33.2854 20.9302 29.6634L20.9268 29.62V29.2067C20.9757 27.6595 21.339 26.1385 21.9946 24.7362C22.6502 23.3339 23.5843 22.0797 24.7402 21.05L24.7502 21.04C25.4641 20.3287 26.4258 19.9213 27.4335 19.9034H27.4368C27.7735 19.9134 28.0968 19.94 28.4102 19.9867L28.3668 19.98C28.6568 20.0234 28.9935 20.05 29.3402 20.0567H29.3502C29.8355 20.0095 30.3223 20.1295 30.7302 20.3967L30.7235 20.3934C31.0802 20.7867 31.3535 21.2634 31.5168 21.7867L31.5235 21.8134C31.7991 22.5023 32.3679 24.0178 33.2302 26.36C33.6802 27.4067 34.1202 28.6967 34.4735 30.0234L34.5202 30.2334C34.2797 31.3935 33.6535 32.438 32.7435 33.1967L32.7335 33.2034C31.5446 34.4612 30.9502 35.2612 30.9502 35.6034C30.9629 35.884 31.0567 36.1549 31.2202 36.3834L31.2168 36.38C32.506 39.0452 34.2886 41.4419 36.4702 43.4434L36.4868 43.46C38.7707 45.5174 41.331 47.2453 44.0935 48.5934L44.2902 48.68C44.6279 48.8992 45.0179 49.0246 45.4202 49.0434H45.4268C45.9446 49.0434 46.8757 48.2078 48.2202 46.5367C49.5646 44.8656 50.4579 44.03 50.9002 44.03L50.9035 44.0334ZM40.4135 71.42H40.4868C44.8637 71.4263 49.1938 70.5192 53.2002 68.7567L52.9968 68.8367C60.8502 65.5234 66.9735 59.4 70.2068 51.7567L70.2868 51.5467C71.9202 47.8367 72.8702 43.51 72.8702 38.9634C72.8702 34.4167 71.9202 30.09 70.2068 26.1734L70.2868 26.38C66.9735 18.5267 60.8502 12.4034 53.2068 9.17004L52.9968 9.09004C49.2868 7.45671 44.9602 6.50671 40.4135 6.50671C35.8668 6.50671 31.5402 7.45671 27.6235 9.17004L27.8302 9.09004C19.9768 12.4034 13.8535 18.5267 10.6202 26.17L10.5402 26.38C8.82149 30.3658 7.94212 34.6629 7.95683 39.0034C7.94606 45.8661 10.1419 52.5505 14.2202 58.07L14.1568 57.9834L10.0735 70.0267L22.5802 66.0467C27.8048 69.5656 33.9644 71.4373 40.2635 71.42H40.4202H40.4135ZM40.4135 4.33449e-05H40.5235C45.9502 4.33449e-05 51.1102 1.14004 55.7735 3.19671L55.5302 3.10004C64.9468 7.09004 72.2902 14.4334 76.1835 23.5967L76.2802 23.85C78.2402 28.3067 79.3802 33.5034 79.3802 38.9667C79.3802 44.43 78.2402 49.6267 76.1835 54.33L76.2802 54.0834C72.2902 63.5 64.9468 70.8434 55.7835 74.7367L55.5302 74.8334C51.1068 76.7934 45.9468 77.9334 40.5202 77.9334H40.4068H40.4135H40.2368C33.3735 77.9334 26.9302 76.13 21.3568 72.9734L21.5468 73.0734L-0.00317383 80L7.02683 59.07C3.3572 53.0337 1.4262 46.101 1.44683 39.0367C1.44683 33.55 2.58683 28.33 4.64349 23.6L4.54683 23.85C8.53683 14.4334 15.8802 7.09004 25.0435 3.19671L25.2968 3.10004C30.0313 1.0377 35.1427 -0.01796 40.3068 4.33449e-05H40.4168H40.4102H40.4135Z" fill="black"/>
</g>
<defs>
<clipPath id="clip0_44_111">
<rect width="80" height="80" fill="white"/>
</clipPath>
</defs>
</svg>
