<svg width="50" height="42" viewBox="0 0 50 42" fill="none" xmlns="http://www.w3.org/2000/svg">
<path d="M47.9167 2.24995C45.9216 3.6572 43.7127 4.73351 41.375 5.43745C40.1203 3.99477 38.4528 2.97223 36.598 2.50813C34.7432 2.04404 32.7906 2.16078 31.0043 2.84256C29.218 3.52435 27.6842 4.73829 26.6104 6.3202C25.5365 7.9021 24.9744 9.77565 25 11.6875V13.7708C21.3388 13.8657 17.711 13.0537 14.4396 11.4071C11.1682 9.76054 8.35482 7.33044 6.24999 4.33329C6.24999 4.33329 -2.08334 23.0833 16.6667 31.4166C12.3761 34.3291 7.2649 35.7894 2.08333 35.5833C20.8333 46 43.75 35.5833 43.75 11.625C43.7481 11.0446 43.6923 10.4658 43.5833 9.89579C45.7096 7.7989 47.2101 5.15144 47.9167 2.24995V2.24995Z" stroke="white" stroke-width="3" stroke-linecap="round" stroke-linejoin="round"/>
</svg>
